<svg width="1440" height="169" viewBox="0 0 1440 169" fill="none" xmlns="http://www.w3.org/2000/svg">
<path fill-rule="evenodd" clip-rule="evenodd" d="M991.335 6.46904C933.599 10.4196 875.818 39.0759 843.868 83.997C810.847 130.423 767.888 155.371 716.116 157.286C664.517 159.194 604.589 138.207 537.451 93.7635C471.014 49.784 424.664 41.5714 382.096 50.0926C360.685 54.3786 340.063 62.9302 318.122 73.5971C308.649 78.2024 298.967 83.183 288.877 88.3735C287.282 89.194 285.677 90.0197 284.061 90.8501C272.234 96.9262 259.842 103.237 246.654 109.48C167.192 147.096 106.419 138.307 63.489 113.406C20.7647 88.6251 -3.9314 48.0923 -11.8643 22.6257L-6.13575 20.8413C1.40893 45.0617 25.2381 84.2835 66.4995 108.216C107.555 132.03 166.228 140.915 244.086 104.057C257.181 97.8579 269.5 91.5853 281.319 85.5132C282.93 84.6855 284.532 83.8613 286.126 83.0414C296.211 77.8534 305.959 72.8382 315.498 68.2009C337.591 57.4608 358.755 48.6458 380.918 44.2093C425.5 35.2852 473.454 44.2036 540.763 88.7604C607.37 132.853 666.048 153.133 715.894 151.29C765.567 149.453 806.893 125.631 838.979 80.5194C872.135 33.9032 931.698 4.53571 990.926 0.483039C1050.21 -3.57378 1109.77 17.7284 1142.29 73.2387C1173.41 126.354 1241.81 156.473 1305.63 162.053C1337.48 164.838 1367.86 161.474 1391.54 152.018C1415.21 142.565 1431.84 127.188 1437.09 106.046L1442.91 107.49C1437.05 131.117 1418.55 147.69 1393.77 157.59C1368.99 167.484 1337.61 170.873 1305.11 168.031C1240.23 162.357 1169.59 131.701 1137.11 76.2717C1106.04 23.2376 1049.01 2.52259 991.335 6.46904Z" fill="url(#paint0_linear_12005_28)"/>
<defs>
<linearGradient id="paint0_linear_12005_28" x1="0.499986" y1="85.0001" x2="1440" y2="85" gradientUnits="userSpaceOnUse">
<stop stop-color="#343045"/>
<stop offset="0.302083" stop-color="#C0B7E8"/>
<stop offset="0.739583" stop-color="#8176AF"/>
<stop offset="1" stop-color="#343045"/>
</linearGradient>
</defs>
</svg>
