<svg width="1440" height="270" viewBox="0 0 1440 270" fill="none" xmlns="http://www.w3.org/2000/svg">
<path fill-rule="evenodd" clip-rule="evenodd" d="M1198.33 71.029C1287.57 32.5463 1376.61 5.7203 1439.23 0.012207L1439.77 5.98743C1378.06 11.6127 1289.7 38.1653 1200.7 76.5386C1111.74 114.899 1022.47 164.933 958.908 217.315C876.715 285.048 771.961 279.468 669.364 245.283C566.74 211.089 465.453 148.018 389.399 99.5371C335.925 66.2123 252.706 33.2663 176.582 42.055C138.612 46.4387 102.443 61.1954 72.4933 91.46C42.5183 121.75 18.5644 167.785 5.44452 235.074L-0.44458 233.926C12.8355 165.815 37.2066 118.587 68.2285 87.2396C99.2753 55.8668 136.775 40.6109 175.893 36.0946C253.938 27.0842 338.56 60.7816 392.587 94.4538L392.6 94.4619L392.613 94.4701C468.724 142.988 569.432 205.662 671.261 239.591C773.122 273.531 875.285 278.452 955.092 212.685C1019.24 159.824 1109.05 109.525 1198.33 71.029Z" fill="url(#paint0_linear_12027_29)" fill-opacity="0.13"/>
<defs>
<linearGradient id="paint0_linear_12027_29" x1="1439.5" y1="3.3517" x2="2.49996" y2="3.3516" gradientUnits="userSpaceOnUse">
<stop stop-color="#343045"/>
<stop offset="0.348958" stop-color="#C0B7E8"/>
<stop offset="0.6875" stop-color="#8176AF"/>
<stop offset="1" stop-color="#343045"/>
</linearGradient>
</defs>
</svg>
