<svg width="1440" height="219" viewBox="0 0 1440 219" fill="none" xmlns="http://www.w3.org/2000/svg">
<path fill-rule="evenodd" clip-rule="evenodd" d="M326.886 9.49167C202.388 18.8021 75.3642 50.736 -3.54143 77.3428L-5.45856 71.6573C73.8025 44.9307 201.328 12.8646 326.439 3.50838C388.997 -1.16995 451.058 -0.179003 506.23 10.0503C561.383 20.2761 609.873 39.776 645.037 72.2976C731.066 151.862 837.6 197.595 936.856 209.459C1036.18 221.331 1127.77 199.257 1184.4 143.856C1277.52 52.762 1394.58 67.7641 1441.62 86.7174L1439.38 92.2827C1393.76 73.9026 1279.48 59.238 1188.6 148.145C1130.23 205.243 1036.57 227.419 936.144 215.416C835.65 203.405 727.934 157.138 640.963 76.7025C606.927 45.2241 559.651 26.0573 505.136 15.9497C450.64 5.84571 389.132 4.83666 326.886 9.49167Z" fill="url(#paint0_linear_11990_26)" fill-opacity="0.13"/>
<defs>
<linearGradient id="paint0_linear_11990_26" x1="-5" y1="62.9998" x2="1462" y2="62.9998" gradientUnits="userSpaceOnUse">
<stop stop-color="#343045"/>
<stop offset="0.224242" stop-color="#C0B7E8"/>
<stop offset="0.786458" stop-color="#8176AF"/>
<stop offset="0.96875" stop-color="#343045"/>
</linearGradient>
</defs>
</svg>
