<svg width="1440" height="262" viewBox="0 0 1440 262" fill="none" xmlns="http://www.w3.org/2000/svg">
<path fill-rule="evenodd" clip-rule="evenodd" d="M1306.45 38.2803C1367.39 82.9466 1417.58 158.122 1445.19 213.665L1439.81 216.335C1412.42 161.211 1362.76 86.9869 1302.9 43.1198C1273 21.2063 1240.77 7.02434 1207.65 6.34945C1174.62 5.67644 1140.3 18.426 1106.07 51.1677C1019.3 134.191 933.299 205.2 842.871 239.307C752.199 273.506 657.224 270.548 552.922 206.052C450.268 142.575 321.1 135.53 212.279 155.016C157.9 164.753 108.743 181.092 70.6902 200.204C32.4778 219.396 5.99762 241.115 -3.80091 261.31L-9.19904 258.69C1.50243 236.635 29.5223 214.166 67.9973 194.843C106.632 175.439 156.35 158.935 211.221 149.11C320.9 129.47 451.732 136.425 556.078 200.948C658.776 264.453 751.801 267.244 840.754 233.693C929.951 200.05 1015.2 129.809 1101.93 46.8324C1137.11 13.1742 1172.91 -0.359631 1207.77 0.350695C1242.54 1.05914 1275.95 15.9272 1306.45 38.2803Z" fill="url(#paint0_linear_11990_25)" fill-opacity="0.13"/>
<defs>
<linearGradient id="paint0_linear_11990_25" x1="-6.99997" y1="105.5" x2="1443" y2="89.0001" gradientUnits="userSpaceOnUse">
<stop stop-color="#211E2E"/>
<stop offset="0.3125" stop-color="#C0B7E8"/>
<stop offset="0.765625" stop-color="#8176AF"/>
<stop offset="0.994792" stop-color="#211E2E"/>
</linearGradient>
</defs>
</svg>
